<svg id="Layer_1" data-name="Layer 1" xmlns="http://www.w3.org/2000/svg" xmlns:xlink="http://www.w3.org/1999/xlink" width="60" height="43.26" viewBox="0 0 60 43.26"><defs><linearGradient id="linear-gradient" y1="26.22" x2="19.89" y2="26.22" gradientUnits="userSpaceOnUse"><stop offset="0" stop-color="#d84040"/><stop offset="1" stop-color="#8e1616"/></linearGradient><linearGradient id="linear-gradient-2" x1="3.85" y1="21.68" x2="24.27" y2="21.68" gradientUnits="userSpaceOnUse"><stop offset="0" stop-color="#8e1616"/><stop offset="1" stop-color="#d84040"/></linearGradient><linearGradient id="linear-gradient-3" x1="31.74" y1="23.66" x2="55.93" y2="23.66" xlink:href="#linear-gradient-2"/><linearGradient id="linear-gradient-4" x1="26.78" y1="23.91" x2="33.11" y2="23.91" xlink:href="#linear-gradient-2"/><linearGradient id="linear-gradient-5" x1="54.93" y1="29.65" x2="60" y2="29.65" xlink:href="#linear-gradient-2"/></defs><title>logo</title><path d="M8.49,46.43a2.51,2.51,0,0,1-.16.92,2.11,2.11,0,0,1-.5.74,2.26,2.26,0,0,1-.82.47,3.23,3.23,0,0,1-1.13.18H5.27v2H4.06V44.4H5.93a4.1,4.1,0,0,1,1.1.13,2.15,2.15,0,0,1,.8.4,1.59,1.59,0,0,1,.49.63A2,2,0,0,1,8.49,46.43Zm-1.26.09a1.4,1.4,0,0,0-.08-.47.94.94,0,0,0-.25-.35,1.07,1.07,0,0,0-.41-.23,2,2,0,0,0-.59-.07H5.27v2.34h.67a1.55,1.55,0,0,0,.55-.09A1,1,0,0,0,7.14,47,1.35,1.35,0,0,0,7.23,46.52Z" transform="translate(0 -7.64)" fill="#1d1616"/><path d="M13.64,45.38v-1h4v1H16.27V49.8h1.41v1h-4v-1h1.41V45.38Z" transform="translate(0 -7.64)" fill="#1d1616"/><path d="M26.36,50.79l-1.24-2.35-1.21,2.35H22.46l1.84-3.28L22.58,44.4H24l1.16,2.22,1.12-2.22h1.42L26,47.51l1.91,3.28Z" transform="translate(0 -7.64)" fill="#1d1616"/><path d="M32.83,50.79V44.4h3.85v1H34.05V47h2.51v1H34.05v1.77h2.63v1Z" transform="translate(0 -7.64)" fill="#1d1616"/><path d="M42.41,50.79V44.4h1.22v5.36h2.7v1Z" transform="translate(0 -7.64)" fill="#1d1616"/><path d="M55.94,48.86a2,2,0,0,1-.19.91,1.85,1.85,0,0,1-.54.64,2.53,2.53,0,0,1-.83.37,4.24,4.24,0,0,1-1,.12,7.82,7.82,0,0,1-1-.06,5.78,5.78,0,0,1-.92-.19V49.46l.46.15.5.12.49.08.47,0a2.4,2.4,0,0,0,.58-.06,1.43,1.43,0,0,0,.39-.16.52.52,0,0,0,.22-.25.64.64,0,0,0,.07-.31.6.6,0,0,0-.13-.4,1.55,1.55,0,0,0-.36-.28,3.39,3.39,0,0,0-.5-.22L53.06,48c-.19-.07-.38-.16-.57-.25a2,2,0,0,1-.5-.35,1.64,1.64,0,0,1-.36-.5,1.93,1.93,0,0,1,0-1.42,1.52,1.52,0,0,1,.43-.59,2.05,2.05,0,0,1,.75-.4,3.63,3.63,0,0,1,1.11-.15l.4,0,.41,0,.39.07.34.07v1.1l-.34-.11-.38-.08c-.13,0-.27,0-.4-.06l-.38,0a2.76,2.76,0,0,0-.54,0,1.22,1.22,0,0,0-.36.15.55.55,0,0,0-.21.22.68.68,0,0,0-.06.29.49.49,0,0,0,.13.35,1.52,1.52,0,0,0,.36.26l.5.21.58.22a4.29,4.29,0,0,1,.58.26,2.24,2.24,0,0,1,.5.35,1.64,1.64,0,0,1,.36.5A1.59,1.59,0,0,1,55.94,48.86Z" transform="translate(0 -7.64)" fill="#1d1616"/><path d="M1.29,28.81H2A8.45,8.45,0,0,0,5,35a9.33,9.33,0,0,0,6.32,2.4,6.5,6.5,0,0,0,4.49-1.55,4.83,4.83,0,0,0,1.72-3.72,4.16,4.16,0,0,0-1.67-3.54,24,24,0,0,0-6.35-2.79,42.35,42.35,0,0,1-5.42-2.08,7.49,7.49,0,0,1-2.93-2.6A6.48,6.48,0,0,1,0,17.36a7.89,7.89,0,0,1,1.55-4.54,7.07,7.07,0,0,0-.35,2,7.41,7.41,0,0,0,1.08,4A7.65,7.65,0,0,0,5,21.52a30.6,30.6,0,0,0,5.47,2.14A21.42,21.42,0,0,1,17.75,27a6,6,0,0,1,2.14,4.81,7.72,7.72,0,0,1-2.23,5.36q-2.25,2.43-6.74,2.43a26.22,26.22,0,0,1-5-.68,25.42,25.42,0,0,0-4.22-.61l-.21-.24c0-.33,0-.76,0-1.28s-.05-1.6-.17-2.9S1.17,31.62,1.17,31A16.92,16.92,0,0,1,1.29,28.81Z" transform="translate(0 -7.64)" fill="url(#linear-gradient)"/><path d="M22.57,16.82H22a5.57,5.57,0,0,0-2.69-5,11.86,11.86,0,0,0-6.33-1.61,8.64,8.64,0,0,0-4.86,1.26,3.59,3.59,0,0,0-1.93,3A3.41,3.41,0,0,0,7.66,17.4a26.26,26.26,0,0,0,6.24,2.79A43.57,43.57,0,0,1,20,22.62,8.61,8.61,0,0,1,23,25.55a8,8,0,0,1,1.23,4.36,6.85,6.85,0,0,1-2.7,5.74,6.55,6.55,0,0,0,1-3.87,7.92,7.92,0,0,0-1.09-4.16,9.14,9.14,0,0,0-2.81-2.92,24.63,24.63,0,0,0-5.53-2.38q-5.78-1.91-7.53-3.25A5.08,5.08,0,0,1,3.85,14.8a6.08,6.08,0,0,1,2.7-5.25q2.68-1.85,7.64-1.84a36.16,36.16,0,0,1,8.23,1.17v.21l.06,1.11c0,.58,0,1.29.06,2.11.06,1,.09,1.87.09,2.63C22.63,15.45,22.61,16.08,22.57,16.82Z" transform="translate(0 -7.64)" fill="url(#linear-gradient-2)"/><path d="M52.38,23V37.78a21.79,21.79,0,0,1-8,1.9,11.94,11.94,0,0,1-9.17-3.75,12.23,12.23,0,0,1-2.59-4.8,23.5,23.5,0,0,1-.86-6.73q0-16.75,14-16.76a29.47,29.47,0,0,1,10,1.73c0,1.82,0,3.21.09,4.19s.09,1.86.09,3.07h-.59a8,8,0,0,0-3.31-5,11,11,0,0,0-6.35-1.82q-11.4,0-11.4,13.68,0,13.88,9.7,13.88c2.58,0,4.4-.62,5.48-1.85A8.3,8.3,0,0,0,50,32V28q0-4.25-3.1-4.89v-.53l3,.17Z" transform="translate(0 -7.64)" fill="url(#linear-gradient-3)"/><path d="M33.11,11.47q-3.59,5.07-3.58,12.82a47,47,0,0,0,.41,5.19,18.15,18.15,0,0,0,2.52,6.88,14.57,14.57,0,0,1-5.68-12.12,15.36,15.36,0,0,1,1.9-7.94A14.37,14.37,0,0,1,33.11,11.47Z" transform="translate(0 -7.64)" fill="url(#linear-gradient-4)"/><path d="M54.93,36.89V22.77q1.41-.06,2.58-.18c1.27-.11,2.1-.17,2.49-.17V23Q57.33,24,57.33,28.69v7.43a10.53,10.53,0,0,0-1.14.36,5,5,0,0,0-.76.23A4.52,4.52,0,0,1,54.93,36.89Z" transform="translate(0 -7.64)" fill="url(#linear-gradient-5)"/></svg>